<?xml version="1.0" standalone="no"?>
<!DOCTYPE svg PUBLIC "-//W3C//DTD SVG 20010904//EN"
 "http://www.w3.org/TR/2001/REC-SVG-20010904/DTD/svg10.dtd">
<svg version="1.0" xmlns="http://www.w3.org/2000/svg"
 width="600.000000pt" height="648.000000pt" viewBox="0 0 600.000000 648.000000"
 preserveAspectRatio="xMidYMid meet">
	<rect width="100%" height="100%" fill="#ffffff" />
	<g transform="translate(0.000000,648.000000) scale(0.100000,-0.100000)"
	fill="#000000" stroke="none">
		<path d="M1658 6183 c738 -2 1946 -2 2685 0 738 1 134 2 -1343 2 -1477 0
-2081 -1 -1342 -2z"/>
		<path d="M295 3480 c0 -1477 1 -2081 2 -1343 2 739 2 1947 0 2685 -1 739 -2
135 -2 -1342z"/>
		<path d="M3046 5177 c3 -10 9 -15 12 -12 3 3 0 11 -7 18 -10 9 -11 8 -5 -6z"/>
		<path d="M2998 5013 l-178 -178 0 -1535 0 -1535 180 180 180 180 0 632 0 633
90 0 90 0 0 -540 0 -540 450 0 450 0 0 273 0 272 -180 180 -180 180 0 -273 0
-272 -90 0 -90 0 0 813 0 814 180 178 c100 97 180 178 178 179 -2 0 -164 0
-360 -2 l-358 -2 0 -450 0 -450 -90 0 -90 0 -2 720 -3 720 -177 -177z m177
-1277 c14 -11 44 -15 99 -16 126 0 116 -42 116 469 l0 436 292 -2 c318 -2 332
-5 277 -53 -16 -15 -26 -30 -21 -34 4 -4 3 -6 -3 -5 -12 4 -125 -107 -117
-115 3 -3 1 -6 -5 -6 -5 0 -35 -24 -66 -54 l-56 -53 0 -813 c-1 -802 0 -814
19 -827 11 -8 18 -19 15 -24 -4 -5 28 -9 78 -9 128 0 124 -7 129 267 2 122 7
225 11 229 4 5 19 -4 33 -19 14 -15 22 -27 18 -27 -4 0 1 -9 11 -20 10 -11 22
-20 27 -20 12 0 47 -38 40 -44 -3 -3 2 -6 11 -6 9 0 17 -4 17 -10 0 -5 29 -38
65 -73 l65 -64 0 -251 0 -252 -420 -2 -420 -3 0 524 c0 474 -2 526 -17 543
-13 15 -31 18 -99 18 -46 0 -86 -5 -89 -10 -4 -6 -11 -7 -17 -4 -7 4 -8 2 -4
-4 4 -7 2 -12 -4 -12 -7 0 -10 -182 -8 -625 3 -546 1 -624 -12 -622 -8 1 -15
-5 -15 -14 0 -9 -20 -37 -45 -62 -25 -26 -52 -54 -60 -64 -9 -10 -27 -26 -40
-36 -14 -10 -18 -15 -10 -10 8 4 -14 -20 -50 -54 l-65 -61 -5 1487 -5 1486 58
58 c32 31 55 57 51 57 -4 0 6 11 22 25 16 14 32 25 37 25 4 0 7 7 7 15 0 8 12
21 28 29 15 8 24 15 20 16 -4 0 12 18 35 40 l42 41 5 -685 c5 -670 5 -685 25
-700z"/>
		<path d="M2895 5019 c-11 -16 -1 -19 13 -3 7 8 8 14 3 14 -5 0 -13 -5 -16 -11z"/>
		<path d="M2806 4937 c3 -10 9 -15 12 -12 3 3 0 11 -7 18 -10 9 -11 8 -5 -6z"/>
		<path d="M4055 4700 c-3 -6 1 -7 9 -4 18 7 21 14 7 14 -6 0 -13 -4 -16 -10z"/>
		<path d="M2095 4470 l-180 -180 183 0 182 0 0 -810 0 -810 -90 0 -90 0 0 272
0 273 -180 -180 -180 -180 0 -275 0 -275 450 3 450 2 0 1170 0 1170 -183 0
-182 0 -180 -180z m371 150 l144 0 0 -1140 0 -1140 -410 -1 c-225 -1 -415 -2
-420 -3 -7 -1 -11 83 -11 254 l0 255 28 24 c15 13 22 20 16 17 -7 -4 -13 -5
-13 -1 0 3 12 10 26 15 15 6 22 14 18 22 -5 8 -2 9 10 5 9 -4 15 -3 12 2 -3 4
15 27 39 50 25 24 45 47 45 52 0 5 6 9 13 9 7 0 20 9 30 20 9 11 14 20 12 20
-3 0 0 6 7 14 7 8 16 12 21 9 4 -2 10 4 14 14 14 35 21 -49 22 -239 0 -188 6
-243 22 -232 5 3 9 0 9 -5 0 -7 30 -11 79 -11 69 0 81 3 105 25 l26 24 0 801
c-1 772 -1 802 -20 822 -17 18 -30 20 -155 19 -141 -2 -155 3 -95 34 16 8 27
21 25 28 -3 7 22 38 55 70 33 32 60 63 60 68 0 5 5 9 11 9 13 0 44 30 32 31
-4 0 2 4 15 10 13 5 21 13 17 19 -4 6 1 7 12 3 16 -6 17 -5 3 12 -8 10 -10 16
-3 12 6 -4 15 -2 18 4 4 5 14 8 22 5 8 -3 80 -6 159 -6z m-406 -244 c0 -2 -7
-7 -16 -10 -8 -3 -12 -2 -9 4 6 10 25 14 25 6z"/>
		<path d="M2296 4612 c-3 -5 1 -9 9 -9 8 0 12 4 9 9 -3 4 -7 8 -9 8 -2 0 -6 -4
-9 -8z"/>
		<path d="M2172 4624 c10 -10 20 -16 22 -13 3 3 -5 11 -17 18 -21 13 -21 12 -5
-5z"/>
		<path d="M2096 4552 c-3 -5 1 -9 9 -9 8 0 12 4 9 9 -3 4 -7 8 -9 8 -2 0 -6 -4
-9 -8z"/>
		<path d="M3876 4412 c-3 -5 1 -9 9 -9 8 0 15 4 15 9 0 4 -4 8 -9 8 -6 0 -12
-4 -15 -8z"/>
		<path d="M1932 4384 c10 -10 20 -16 22 -13 3 3 -5 11 -17 18 -21 13 -21 12 -5
-5z"/>
		<path d="M1976 4252 c-3 -5 1 -9 9 -9 8 0 12 4 9 9 -3 4 -7 8 -9 8 -2 0 -6 -4
-9 -8z"/>
		<path d="M2106 3272 c-2 -4 -1 -14 4 -22 7 -11 9 -9 7 8 -1 24 -3 26 -11 14z"/>
		<path d="M2090 3236 c0 -2 8 -10 18 -17 15 -13 16 -12 3 4 -13 16 -21 21 -21
13z"/>
		<path d="M3976 3192 c-3 -5 1 -9 9 -9 8 0 12 4 9 9 -3 4 -7 8 -9 8 -2 0 -6 -4
-9 -8z"/>
		<path d="M4060 3101 c0 -6 4 -13 10 -16 6 -3 7 1 4 9 -7 18 -14 21 -14 7z"/>
		<path d="M1859 3023 c-13 -16 -12 -17 4 -4 9 7 17 15 17 17 0 8 -8 3 -21 -13z"/>
		<path d="M4290 2866 c0 -2 8 -10 18 -17 15 -13 16 -12 3 4 -13 16 -21 21 -21
13z"/>
		<path d="M3135 2010 c-3 -6 1 -7 9 -4 18 7 21 14 7 14 -6 0 -13 -4 -16 -10z"/>
		<path d="M3070 1936 c0 -2 7 -7 16 -10 8 -3 12 -2 9 4 -6 10 -25 14 -25 6z"/>
		<path d="M3025 1909 c-4 -6 -5 -12 -2 -15 2 -3 7 2 10 11 7 17 1 20 -8 4z"/>
		<path d="M3007 1869 c4 -13 8 -18 11 -10 2 7 -1 18 -6 23 -8 8 -9 4 -5 -13z"/>
		<path d="M2895 1770 c-3 -6 1 -7 9 -4 18 7 21 14 7 14 -6 0 -13 -4 -16 -10z"/>
		<path d="M0 465 c0 -13 340 -15 3000 -15 2660 0 3000 2 3000 15 0 13 -340 15
-3000 15 -2660 0 -3000 -2 -3000 -15z"/>
		<path d="M149 343 c-18 -21 -18 -27 -2 -68 17 -46 25 -70 21 -70 -2 0 7 -15
20 -32 26 -37 46 -41 73 -17 17 15 20 15 45 -5 33 -26 39 -26 71 -2 24 20 24
20 44 0 24 -24 40 -24 71 0 24 20 25 20 41 0 20 -23 31 -24 46 -5 9 11 18 12
41 3 21 -8 35 -8 52 0 17 8 30 8 43 0 15 -8 22 -5 36 12 10 13 20 17 24 11 3
-6 20 -17 36 -25 30 -16 64 -8 81 19 4 7 13 5 25 -6 10 -10 34 -17 53 -16 19
0 44 -2 55 -6 14 -5 27 -1 40 12 20 19 20 19 57 -1 35 -19 39 -19 56 -3 17 15
20 15 32 1 11 -14 15 -14 36 0 20 13 25 13 37 0 13 -12 17 -12 32 5 11 12 15
26 10 37 -15 38 -16 65 -3 57 7 -4 10 -3 5 1 -4 5 0 16 9 26 14 16 14 18 -4
28 -11 6 -29 8 -41 6 -11 -2 -21 1 -21 6 0 14 -26 39 -41 39 -6 0 -22 -12 -34
-26 -14 -17 -25 -22 -29 -15 -5 8 -18 6 -43 -4 -24 -10 -40 -12 -48 -5 -14 12
-65 10 -82 -3 -8 -6 -13 -6 -13 1 0 5 -12 17 -26 27 -20 13 -28 14 -40 4 -12
-10 -17 -8 -28 6 -18 25 -66 23 -103 -5 -18 -12 -42 -24 -55 -25 -38 -4 -39
-5 -32 -17 4 -7 -2 -5 -14 6 -15 13 -30 17 -52 13 -21 -5 -40 0 -64 14 -34 20
-35 20 -46 2 -9 -13 -23 -18 -56 -16 -24 0 -44 -3 -44 -7 0 -10 -31 -5 -58 9
-11 6 -21 8 -24 6 -3 -3 -13 4 -23 15 -10 11 -23 20 -30 20 -13 0 -55 -53 -56
-72 0 -7 -6 2 -13 21 -7 19 -21 40 -32 48 -18 11 -23 11 -35 -4z m55 -81 c11
-34 22 -62 26 -62 3 0 14 29 24 65 12 42 24 65 33 65 10 0 13 -6 8 -17 -3 -10
-16 -46 -28 -80 -30 -86 -47 -84 -81 11 -30 85 -30 89 -14 84 7 -3 21 -32 32
-66z m666 50 c15 -12 20 -23 15 -32 -6 -10 -10 -9 -17 4 -5 9 -20 16 -34 16
-37 0 -27 -32 13 -42 55 -14 67 -72 18 -84 -34 -9 -67 -1 -79 18 -15 25 1 34
23 14 23 -21 54 -18 59 5 2 11 -10 19 -38 28 -35 10 -40 15 -40 42 0 21 6 32
23 39 31 12 32 12 57 -8z m370 -28 l0 -46 31 27 c38 31 52 25 20 -9 l-23 -25
22 -30 c16 -23 18 -31 7 -31 -7 0 -20 11 -27 25 -7 14 -17 25 -22 25 -4 0 -8
-11 -8 -25 0 -14 -4 -25 -10 -25 -6 0 -10 33 -10 80 0 47 4 80 10 80 6 0 10
-21 10 -46z m-686 11 c-4 -9 0 -15 10 -15 9 0 16 -4 16 -10 0 -5 -7 -10 -15
-10 -10 0 -15 -11 -15 -35 0 -24 5 -35 15 -35 8 0 15 -5 15 -11 0 -6 -10 -9
-22 -7 -19 2 -24 10 -26 43 -2 22 -9 44 -15 48 -9 6 -9 10 1 14 6 2 12 11 12
19 0 8 7 14 15 14 9 0 12 -6 9 -15z m386 0 c0 -8 7 -15 15 -15 8 0 15 -4 15
-10 0 -5 -7 -10 -15 -10 -10 0 -15 -11 -15 -35 0 -24 5 -35 15 -35 8 0 15 -5
15 -11 0 -6 -10 -9 -22 -7 -19 2 -24 10 -26 43 -2 22 -9 44 -15 48 -9 6 -9 10
1 14 6 2 12 11 12 19 0 8 5 14 10 14 6 0 10 -7 10 -15z m-562 -27 c7 -7 12
-20 12 -30 0 -14 -8 -18 -40 -18 -22 0 -40 -5 -40 -10 0 -18 31 -24 52 -11 25
15 35 7 18 -14 -15 -18 -61 -20 -78 -3 -15 15 -16 53 -2 79 12 22 59 26 78 7z
m118 -5 c13 -13 14 -18 3 -22 -7 -2 -15 1 -17 8 -6 17 -40 13 -51 -7 -12 -23
4 -52 29 -52 11 0 20 5 20 10 0 6 7 10 15 10 20 0 8 -28 -17 -36 -57 -18 -96
32 -64 81 19 29 57 33 82 8z m191 -9 c15 -24 15 -29 2 -53 -11 -20 -22 -26
-49 -26 -29 0 -36 5 -44 27 -24 67 52 111 91 52z m83 16 c0 -5 -7 -10 -15 -14
-10 -3 -15 -19 -15 -46 0 -29 -4 -40 -15 -40 -11 0 -15 13 -15 54 0 54 0 55
30 54 17 -1 30 -4 30 -8z m307 -16 c15 -24 15 -29 2 -53 -18 -33 -67 -41 -86
-15 -16 22 -17 66 -1 82 22 22 66 14 85 -14z m113 11 c17 -21 7 -29 -18 -14
-27 17 -52 5 -52 -26 0 -31 25 -43 52 -26 25 15 35 7 18 -14 -15 -18 -61 -20
-78 -3 -16 16 -16 70 0 86 17 17 63 15 78 -3z"/>
		<path d="M315 250 c-4 -6 7 -10 25 -10 18 0 29 4 25 10 -3 6 -15 10 -25 10
-10 0 -22 -4 -25 -10z"/>
		<path d="M614 246 c-11 -29 0 -51 26 -51 21 0 25 5 25 30 0 24 -5 31 -23 33
-13 2 -24 -3 -28 -12z"/>
		<path d="M1004 246 c-11 -29 0 -51 26 -51 21 0 25 5 25 30 0 24 -5 31 -23 33
-13 2 -24 -3 -28 -12z"/>
		<path d="M4116 302 c-3 -5 -24 -8 -46 -6 -23 1 -38 -1 -35 -7 4 -5 1 -9 -5 -9
-7 0 -8 -6 0 -19 5 -11 7 -26 4 -34 -3 -8 -1 -18 5 -22 7 -4 9 1 5 12 -5 17
-5 17 6 0 7 -10 9 -21 6 -24 -8 -9 14 -44 24 -38 5 3 12 0 15 -5 5 -8 13 -6
26 6 18 16 20 16 38 0 18 -17 21 -17 45 -1 14 10 26 13 26 7 0 -18 33 -23 50
-7 11 10 20 12 24 7 3 -6 42 -9 88 -7 44 2 90 0 102 -5 12 -4 31 -3 43 3 16 7
27 6 37 -2 8 -7 17 -8 19 -4 3 5 32 8 64 6 32 -1 63 -2 68 -3 6 0 43 2 83 3
39 2 72 0 72 -4 0 -4 12 -4 28 -1 40 11 212 9 211 -2 -2 -17 33 -29 42 -15 5
8 9 10 9 5 0 -5 7 -2 16 5 9 7 33 12 54 10 21 -1 41 3 45 9 5 8 10 8 20 0 8
-7 18 -9 24 -6 5 3 21 2 35 -4 17 -6 27 -6 32 1 3 6 24 7 50 3 28 -4 44 -2 44
4 0 11 33 9 61 -3 10 -3 20 -2 24 4 4 8 12 8 26 1 11 -6 25 -7 32 -3 19 12 45
14 52 3 4 -7 13 -7 24 0 12 6 28 5 48 -2 18 -7 38 -8 49 -3 10 4 22 8 25 7 3
0 6 4 7 11 1 7 4 28 7 47 8 51 -41 101 -75 80 -8 -5 -19 -6 -25 -2 -17 12
-139 10 -154 -2 -11 -8 -13 -8 -8 1 11 17 -36 3 -50 -16 -10 -14 -13 -14 -33
4 -25 22 -50 28 -66 14 -7 -6 -21 -6 -35 -1 -13 5 -33 6 -44 2 -11 -4 -23 -3
-26 2 -3 5 -17 5 -32 -1 -17 -7 -28 -7 -32 -1 -11 17 -85 3 -111 -20 -21 -21
-24 -21 -30 -6 -4 11 -10 13 -18 7 -6 -6 -46 -9 -89 -7 -42 2 -74 -1 -71 -5 3
-5 0 -9 -5 -9 -6 0 -11 4 -11 9 0 5 -20 7 -45 6 -25 -2 -47 1 -50 6 -4 5 -14
9 -23 8 -14 0 -13 -2 3 -9 16 -7 17 -9 3 -9 -9 -1 -21 6 -25 14 -7 11 -16 12
-38 6 -17 -5 -24 -10 -16 -10 8 -1 12 -4 8 -7 -3 -3 -14 -1 -23 4 -14 8 -22 6
-32 -6 -7 -10 -11 -12 -8 -6 3 7 -9 10 -35 9 -22 -1 -43 3 -46 8 -4 6 -1 7 8
2 8 -5 11 -4 6 0 -11 13 -76 13 -70 0 2 -5 -2 -2 -10 8 -12 15 -19 16 -43 6
-16 -7 -32 -12 -36 -11 -5 1 -8 -4 -8 -11 0 -8 -4 -7 -10 3 -5 8 -10 10 -10 4
0 -13 -62 -14 -71 -1 -11 15 -57 18 -62 3 -6 -16 -47 -18 -47 -2 0 5 -7 1 -15
-10 -8 -10 -15 -14 -15 -7 0 7 -7 10 -15 7 -8 -4 -15 -1 -15 6 0 7 -7 10 -15
6 -8 -3 -15 0 -15 6 0 6 -3 8 -7 5 -3 -4 -12 -2 -19 4 -7 6 -15 6 -18 1z m-11
-30 c-3 -3 -11 0 -18 7 -9 10 -8 11 6 5 10 -3 15 -9 12 -12z m1074 -55 c-11
-37 -25 -67 -29 -67 -5 0 0 26 11 58 28 83 29 85 34 80 3 -3 -4 -35 -16 -71z
m-1096 21 c10 -28 17 -38 21 -28 3 8 10 27 15 43 6 15 15 27 21 27 8 0 -23
-97 -36 -109 -7 -7 -20 12 -32 44 -5 17 -13 38 -17 48 -4 9 -3 17 3 17 6 0 17
-19 25 -42z m460 25 c15 -13 21 -15 24 -5 3 6 9 12 14 12 6 0 7 -4 4 -10 -3
-5 0 -10 7 -11 10 0 10 -2 1 -6 -15 -6 -18 -53 -3 -53 6 0 10 -4 10 -10 0 -5
-7 -10 -15 -10 -10 0 -15 10 -15 33 0 26 -5 35 -31 46 -20 9 -34 10 -41 3 -6
-6 1 -13 21 -20 36 -13 43 -47 11 -57 -21 -7 -60 10 -60 25 0 13 17 13 25 0 9
-15 35 -12 35 4 0 8 -10 16 -22 18 -26 3 -37 36 -16 49 19 13 29 11 51 -8z
m237 -15 l0 -33 19 24 c11 15 21 20 25 13 3 -6 -1 -15 -10 -20 -15 -8 -15 -11
1 -36 21 -32 4 -35 -18 -3 l-16 22 0 -22 c-1 -13 -5 -23 -9 -23 -4 0 -8 25 -8
55 -1 30 3 55 7 55 5 0 9 -15 9 -32z m500 22 c0 -5 -11 -10 -25 -10 -14 0 -25
-5 -25 -11 0 -5 5 -7 10 -4 15 9 40 -13 40 -35 0 -10 -7 -23 -15 -30 -18 -15
-55 -4 -55 18 0 12 3 13 12 4 19 -19 38 -14 38 9 0 18 -4 20 -25 15 -23 -6
-25 -3 -25 24 0 28 3 30 35 30 19 0 35 -4 35 -10z m50 -45 c0 -30 -4 -55 -10
-55 -5 0 -10 18 -10 39 0 22 -5 42 -12 44 -10 4 -9 8 2 16 26 18 30 12 30 -44z
m64 49 c26 -10 18 -25 -9 -18 -16 4 -25 2 -25 -6 0 -6 4 -9 9 -6 19 12 41 -7
41 -34 0 -32 -22 -45 -51 -30 -25 14 -26 75 -1 89 21 13 17 12 36 5z m97 -10
c11 -13 9 -14 -13 -9 -16 4 -29 2 -34 -6 -5 -9 -2 -10 10 -6 10 4 24 -1 36
-13 19 -19 19 -19 40 16 12 18 25 34 30 34 9 0 17 -65 12 -93 -4 -21 -22 -23
-22 -2 0 20 -39 19 -61 -1 -23 -21 -55 -10 -63 21 -14 55 33 98 65 59z m169 4
c0 -20 -34 -98 -42 -98 -12 0 -9 22 7 50 20 35 19 40 -10 40 -14 0 -25 5 -25
10 0 6 16 10 35 10 21 0 35 -5 35 -12z m80 3 c0 -18 -41 -101 -51 -101 -5 0 0
18 11 40 25 49 25 50 -5 50 -14 0 -25 5 -25 10 0 6 16 10 35 10 19 0 35 -4 35
-9z m75 -15 c20 -30 11 -73 -16 -81 -28 -9 -49 12 -49 49 0 56 38 74 65 32z
m-1481 -1 c3 -8 1 -15 -4 -15 -5 0 -5 -13 1 -32 9 -34 7 -44 -10 -33 -6 3 -11
19 -11 36 0 29 -14 39 -23 17 -4 -10 -8 -10 -15 1 -12 17 -32 6 -32 -20 0 -21
20 -25 38 -7 9 9 12 8 12 -4 0 -26 -41 -34 -57 -12 -26 36 -6 66 42 62 16 -2
30 3 33 10 5 17 19 15 26 -3z m514 -10 c-3 -3 -9 2 -12 12 -6 14 -5 15 5 6 7
-7 10 -15 7 -18z m-640 -17 c3 -13 -3 -18 -22 -18 -14 0 -26 -5 -26 -11 0 -7
10 -9 25 -5 27 7 35 -8 10 -18 -36 -13 -69 31 -44 60 16 19 53 14 57 -8z m207
-12 c0 -36 -26 -56 -49 -37 -16 14 -22 52 -9 65 4 4 19 6 33 4 20 -2 25 -8 25
-32z m44 18 c-8 -9 -12 -27 -11 -40 2 -13 -1 -24 -7 -24 -6 0 -11 18 -11 40 0
34 3 40 21 40 19 0 20 -2 8 -16z m217 -9 c7 -27 -9 -55 -32 -55 -22 0 -44 41
-33 62 15 28 57 24 65 -7z m72 5 c5 -13 3 -13 -11 -2 -18 15 -37 8 -37 -13 0
-21 19 -28 35 -15 12 10 15 9 15 -3 0 -18 -24 -29 -45 -21 -15 6 -21 55 -8 68
12 11 46 2 51 -14z m187 9 c4 -6 4 -13 0 -17 -3 -3 -10 0 -14 7 -12 18 -31 5
-31 -21 0 -17 4 -19 28 -13 26 6 26 6 9 -12 -29 -30 -69 10 -53 53 6 16 52 19
61 3z m80 -23 c0 -36 -26 -56 -49 -37 -16 14 -22 52 -9 65 4 4 19 6 33 4 20
-2 25 -8 25 -32z m123 -8 c2 -22 -1 -38 -7 -38 -6 0 -11 16 -11 36 0 45 -24
42 -28 -4 -4 -43 -22 -41 -22 3 0 19 -4 35 -10 35 -11 0 -13 -12 -10 -47 1
-13 -3 -23 -9 -23 -6 0 -11 18 -11 40 l0 40 53 -3 52 -2 3 -37z m523 -31 c-10
-9 -11 -8 -5 6 3 10 9 15 12 12 3 -3 0 -11 -7 -18z m-801 3 c0 -5 -4 -10 -10
-10 -5 0 -10 5 -10 10 0 6 5 10 10 10 6 0 10 -4 10 -10z m330 -20 c-6 -11 -13
-20 -16 -20 -2 0 0 9 6 20 6 11 13 20 16 20 2 0 0 -9 -6 -20z"/>
		<path d="M5360 210 c0 -15 5 -20 18 -18 9 2 17 10 17 18 0 8 -8 16 -17 18 -13
2 -18 -3 -18 -18z"/>
		<path d="M5530 225 c-10 -12 -10 -15 4 -15 9 0 16 7 16 15 0 8 -2 15 -4 15 -2
0 -9 -7 -16 -15z"/>
		<path d="M5445 220 c-8 -14 3 -30 21 -30 8 0 14 9 14 20 0 21 -24 28 -35 10z"/>
		<path d="M5766 242 c-9 -27 3 -54 23 -50 22 5 22 62 -1 66 -9 2 -19 -5 -22
-16z"/>
		<path d="M4165 230 c-3 -5 3 -10 15 -10 12 0 18 5 15 10 -3 6 -10 10 -15 10
-5 0 -12 -4 -15 -10z"/>
		<path d="M4366 224 c-7 -19 1 -34 19 -34 15 0 24 19 18 38 -6 17 -30 15 -37
-4z"/>
		<path d="M4624 226 c-7 -19 3 -36 22 -36 10 0 14 8 12 22 -4 26 -26 36 -34 14z"/>
		<path d="M4966 224 c-7 -19 1 -34 19 -34 15 0 24 19 18 38 -6 17 -30 15 -37
-4z"/>
	</g>
</svg>
