<?xml version="1.0" standalone="no"?>
<!DOCTYPE svg PUBLIC "-//W3C//DTD SVG 20010904//EN"
 "http://www.w3.org/TR/2001/REC-SVG-20010904/DTD/svg10.dtd">
<svg version="1.0" xmlns="http://www.w3.org/2000/svg"
 width="600.000000pt" height="777.000000pt" viewBox="0 0 600.000000 777.000000"
 preserveAspectRatio="xMidYMid meet">
	<rect width="100%" height="100%" fill="#ffffff" />
	<g transform="translate(0.000000,777.000000) scale(0.100000,-0.100000)"
	fill="#000000" stroke="none">
		<path d="M2949 6261 c-54 -11 -95 -41 -191 -138 -47 -48 -140 -141 -206 -205
l-119 -118 -274 0 c-160 0 -290 -4 -312 -11 -127 -35 -189 -214 -114 -328 15
-23 49 -57 76 -76 49 -35 101 -102 101 -129 0 -8 -28 -35 -62 -60 -35 -25
-320 -303 -635 -618 -559 -561 -572 -574 -588 -629 -19 -67 -8 -133 30 -189
14 -19 103 -114 200 -210 163 -163 175 -177 175 -212 0 -24 -8 -46 -25 -66
-114 -135 -42 -332 133 -365 18 -4 94 2 168 13 74 11 141 20 148 20 7 0 95
-83 196 -185 141 -142 188 -196 202 -231 l18 -45 -26 -22 c-121 -101 -143
-136 -144 -225 0 -84 60 -173 135 -202 19 -8 130 -14 295 -17 l265 -4 235
-234 c160 -158 248 -238 275 -250 59 -25 172 -16 222 17 21 14 137 124 257
246 l220 221 275 3 c229 3 282 6 312 19 110 50 161 192 107 299 -14 26 -48 65
-85 95 -34 27 -61 57 -62 65 0 57 50 116 416 483 290 291 377 384 392 420 16
38 28 49 67 67 50 22 287 245 324 305 34 55 43 120 25 183 -15 50 -30 69 -143
185 -135 137 -201 191 -246 203 -27 6 -28 7 -21 63 9 75 -11 250 -36 316 -27
72 -87 137 -160 174 -71 35 -138 45 -239 32 l-75 -9 -136 132 c-75 72 -155
147 -180 167 l-44 36 30 48 c17 27 57 69 89 94 70 55 99 104 104 180 5 73 -34
152 -97 196 l-43 30 -308 5 c-170 3 -311 7 -314 10 -276 278 -437 429 -467
438 -52 16 -100 20 -140 13z m106 -35 c11 -8 26 -11 34 -8 9 3 12 1 7 -6 -4
-7 -1 -12 8 -12 17 0 157 -134 175 -168 6 -12 27 -29 46 -38 20 -9 40 -25 45
-34 5 -10 29 -36 52 -59 24 -22 64 -60 91 -85 l47 -46 288 0 c318 1 338 -2
391 -60 53 -59 65 -148 29 -219 -17 -33 -75 -92 -87 -88 -3 1 -7 -1 -9 -5 -1
-5 -15 -20 -30 -35 -67 -67 -77 -121 -32 -170 16 -18 35 -34 42 -35 7 -2 20
-11 29 -20 9 -10 19 -15 23 -11 3 3 6 0 6 -8 0 -8 10 -21 22 -29 33 -23 106
-99 100 -105 -3 -3 2 -5 12 -5 9 0 15 -4 12 -8 -2 -4 9 -17 25 -27 18 -12 27
-26 24 -35 -4 -8 -3 -11 1 -7 4 4 16 0 26 -9 14 -14 28 -15 70 -9 101 14 210
7 231 -14 6 -6 19 -11 30 -11 10 0 15 -4 12 -10 -3 -5 5 -12 19 -16 13 -3 27
-12 30 -21 3 -8 10 -12 14 -9 5 3 15 -7 23 -22 7 -15 22 -38 32 -52 9 -14 18
-41 20 -60 1 -19 6 -38 11 -41 5 -4 10 -71 11 -149 3 -126 5 -145 23 -162 11
-11 31 -21 45 -21 14 -1 24 -4 22 -7 -2 -3 3 -11 11 -18 8 -7 14 -10 14 -7 0
3 10 -5 23 -17 12 -13 21 -27 19 -32 -2 -5 5 -5 15 -2 9 4 14 4 11 0 -4 -3 11
-22 32 -42 22 -19 37 -39 34 -43 -3 -5 -1 -9 3 -9 16 0 73 -52 67 -61 -3 -5 1
-6 9 -3 8 3 18 0 23 -7 5 -8 3 -10 -7 -4 -8 5 5 -11 29 -35 23 -24 42 -50 43
-59 5 -99 -1 -145 -21 -165 -11 -13 -17 -26 -13 -29 3 -4 1 -7 -4 -7 -6 0 -66
-54 -133 -120 -66 -67 -124 -119 -128 -116 -5 3 -14 0 -22 -6 -12 -8 -11 -9 5
-4 20 6 20 6 1 -9 -11 -8 -27 -15 -36 -15 -19 0 -72 -59 -65 -70 5 -9 -85
-113 -151 -177 -24 -23 -44 -46 -44 -51 0 -5 -10 -16 -22 -25 -36 -24 -313
-300 -311 -309 2 -4 -1 -8 -6 -8 -6 0 -24 -15 -42 -32 -17 -18 -28 -26 -25
-18 4 8 1 6 -6 -5 -7 -10 -44 -51 -83 -90 -69 -69 -109 -136 -118 -194 -3 -20
0 -31 9 -35 8 -3 14 -12 14 -19 0 -8 20 -27 45 -43 64 -40 99 -113 93 -190 -3
-39 -10 -59 -21 -66 -10 -5 -17 -15 -17 -22 0 -19 -53 -66 -81 -71 -13 -3
-144 -5 -291 -6 -163 -1 -268 -5 -268 -11 0 -5 -4 -7 -8 -4 -5 3 -26 -11 -47
-30 -21 -19 -36 -34 -32 -34 4 0 -7 -15 -24 -32 -17 -18 -36 -32 -41 -30 -5 1
-7 -1 -4 -6 3 -5 -8 -19 -25 -31 -16 -12 -27 -26 -24 -32 4 -5 3 -8 -2 -7 -5
2 -53 -42 -108 -97 -125 -125 -195 -186 -207 -179 -5 3 -16 0 -24 -7 -16 -13
-109 -13 -129 -1 -5 3 -18 7 -29 7 -11 1 -27 12 -37 23 -9 12 -20 22 -23 22
-2 0 -55 50 -116 111 -61 61 -106 108 -99 104 8 -5 10 -4 5 3 -4 7 -13 12 -20
12 -8 0 -22 12 -31 27 -23 35 -111 123 -123 123 -6 0 -17 11 -26 25 -9 14 -23
25 -31 25 -8 0 -15 4 -15 9 0 6 -110 10 -271 10 l-271 1 -50 40 c-28 22 -48
40 -44 40 4 0 -1 14 -10 32 -21 40 -14 140 11 168 9 10 14 23 10 29 -4 7 0 8
11 4 12 -4 15 -3 10 5 -4 7 -1 12 9 12 9 0 14 4 11 9 -3 5 5 12 19 15 14 4 33
19 42 34 10 15 20 29 24 32 18 14 -57 168 -83 169 -8 1 -220 211 -212 211 2 0
-21 25 -51 56 -61 61 -82 66 -185 50 -25 -3 -70 -9 -100 -11 -30 -3 -67 -7
-82 -10 -33 -5 -99 17 -135 45 -14 11 -22 20 -17 20 5 0 0 7 -10 15 -11 8 -16
15 -10 15 5 0 2 5 -6 10 -32 20 -14 200 20 200 6 0 8 5 5 10 -3 6 -2 10 3 10
17 0 35 59 29 97 -4 21 -16 46 -29 56 -13 10 -16 16 -8 12 8 -4 -1 6 -20 21
-19 16 -41 36 -48 44 -80 88 -232 237 -237 232 -4 -4 -6 -2 -4 3 4 17 -12 45
-22 39 -17 -10 -42 69 -40 126 2 60 27 109 87 168 18 17 30 32 26 32 -4 1 6 8
21 16 16 9 25 20 21 26 -5 7 -2 9 9 5 9 -3 16 -3 16 1 -3 21 3 32 17 32 9 0
18 9 21 19 3 11 23 31 44 45 21 15 39 31 39 37 0 5 5 7 12 3 7 -4 8 -3 4 5 -5
7 7 24 29 44 20 17 56 51 79 75 24 23 49 42 57 42 9 0 10 3 3 8 -6 4 -4 13 8
25 10 9 20 16 22 15 4 -3 79 72 86 87 3 6 8 9 13 7 4 -1 7 3 7 9 0 5 5 7 12 3
7 -5 10 -2 7 7 -5 15 56 81 66 71 3 -3 5 0 5 6 0 16 37 52 44 45 3 -4 6 0 6 7
0 7 3 10 6 7 4 -4 20 14 36 38 17 25 36 45 44 45 8 0 18 8 21 17 7 18 43 57
43 46 0 -4 7 2 16 13 8 10 12 12 8 4 -4 -9 -3 -12 2 -7 5 5 9 12 9 16 0 3 10
19 23 35 12 16 22 26 22 22 0 -4 11 4 24 16 13 13 22 25 19 28 -2 2 13 15 34
28 21 13 30 22 21 18 -28 -9 -21 2 11 19 16 8 32 24 36 35 3 11 11 20 16 20 6
0 7 -5 3 -12 -4 -7 -3 -8 5 -4 6 4 9 11 6 16 -3 5 0 12 7 17 13 8 18 9 39 12
5 0 7 6 4 11 -3 6 0 10 8 10 16 0 51 37 61 64 9 25 -28 97 -66 127 -75 61
-116 107 -128 144 -14 42 -20 116 -9 109 6 -3 21 35 23 59 1 5 9 14 18 21 10
7 14 17 10 21 -4 5 -2 5 4 2 6 -4 19 2 28 12 26 29 61 32 357 32 l271 1 39 38
c21 20 40 35 43 32 3 -3 8 3 12 12 3 9 11 13 17 9 5 -3 7 -1 3 5 -3 6 0 16 8
24 41 40 68 58 78 52 7 -4 8 -3 4 4 -4 7 -2 12 4 12 6 0 8 5 5 10 -3 6 -1 10
5 10 6 0 8 5 4 12 -5 8 -2 9 9 5 10 -4 17 -1 17 6 0 6 19 29 41 49 23 21 39
38 35 38 -3 0 2 9 11 19 9 11 19 18 23 16 3 -2 15 10 25 26 11 16 32 34 47 40
16 6 28 15 28 20 0 8 69 26 111 28 14 1 34 -5 44 -13z m260 -215 c-6 -5 -25
10 -25 20 0 5 6 4 14 -3 8 -7 12 -15 11 -17z"/>
		<path d="M2965 6065 c-16 -8 -26 -14 -22 -15 5 0 -80 -88 -188 -195 -108 -107
-192 -195 -186 -195 6 0 11 -5 11 -11 0 -5 -6 -7 -12 -3 -9 6 -9 3 0 -9 13
-15 -12 -16 -319 -17 -302 0 -333 -2 -345 -18 -7 -9 -14 -20 -14 -24 0 -14 73
-77 83 -71 5 3 7 1 4 -4 -4 -6 9 -28 29 -49 20 -22 50 -66 67 -99 l31 -60 1
-215 c1 -118 0 -170 -2 -115 -3 80 -7 102 -22 116 -39 36 -88 -5 -76 -64 l6
-32 -21 32 c-22 33 -22 33 -50 16 -16 -9 -27 -20 -24 -25 3 -4 0 -8 -6 -8 -14
0 -330 -318 -330 -332 0 -6 -3 -8 -7 -5 -3 4 -16 -5 -29 -18 -13 -14 -29 -25
-36 -25 -9 0 -9 -3 2 -10 8 -5 10 -10 4 -10 -10 0 -74 -59 -120 -111 -37 -41
-102 -97 -107 -92 -3 2 -8 -5 -12 -16 -3 -12 -11 -19 -16 -16 -5 3 -6 -1 -3
-9 4 -10 1 -16 -8 -16 -17 0 -58 -41 -58 -58 0 -7 -4 -11 -10 -10 -5 2 -52
-41 -104 -95 -53 -56 -99 -96 -106 -92 -6 3 -10 3 -9 -2 2 -15 -13 -53 -20
-48 -8 4 -127 -115 -124 -124 0 -3 -3 -14 -8 -24 -7 -13 -6 -19 6 -23 8 -3 15
-10 15 -15 0 -5 18 -25 40 -45 22 -20 37 -40 34 -45 -3 -5 3 -12 12 -16 23 -9
104 -87 104 -100 0 -6 8 -17 17 -24 14 -11 15 -12 9 -1 -5 8 19 -14 52 -48 66
-67 87 -72 111 -29 13 24 13 29 -4 55 -11 16 -20 34 -20 39 0 6 -5 10 -12 10
-6 0 -15 4 -20 9 -5 6 -2 6 7 1 9 -5 12 -5 7 1 -5 5 -12 9 -16 9 -4 0 -24 18
-46 40 -22 21 -34 35 -26 31 10 -6 12 -5 7 2 -4 7 -11 12 -17 12 -11 0 -52 40
-41 40 4 1 -3 9 -15 19 -12 10 -19 22 -15 26 4 5 1 5 -5 1 -7 -4 -23 3 -38 16
l-24 23 20 33 c12 17 27 32 35 32 8 0 13 5 12 12 -2 6 8 17 22 25 14 7 21 13
17 13 -4 0 -2 6 5 14 7 8 16 12 20 10 4 -2 9 5 13 16 4 11 11 18 16 15 5 -4 9
-2 9 3 0 12 148 162 160 162 5 0 12 5 16 12 5 7 2 9 -7 4 -16 -8 18 22 47 42
11 7 13 10 5 6 -9 -5 -12 -3 -7 5 6 9 11 9 24 -1 10 -8 13 -9 9 -1 -4 6 -3 14
3 18 6 4 8 11 5 16 -4 5 -2 9 4 9 15 0 62 46 54 53 -3 4 1 7 10 7 10 0 17 4
17 8 0 14 36 52 49 52 6 0 11 4 11 8 0 13 123 137 133 134 5 -1 5 3 1 9 -5 9
-2 10 10 6 13 -5 20 1 28 23 5 17 14 30 20 30 5 0 6 4 3 10 -3 6 1 7 9 4 9 -3
16 -1 16 5 0 6 5 11 11 11 5 0 7 -5 3 -12 -5 -7 -3 -8 5 -3 8 5 9 11 3 17 -10
10 156 185 171 180 5 -1 6 2 2 8 -3 5 1 10 9 10 9 0 16 7 16 15 0 8 8 15 17
15 9 0 13 3 10 7 -4 3 2 13 13 20 11 8 18 19 15 24 -4 5 -1 9 4 9 8 0 11 -101
11 -320 0 -176 1 -323 2 -327 1 -5 11 -16 22 -25 21 -16 21 -16 -5 -26 -35
-14 -44 -40 -22 -65 13 -15 14 -18 3 -13 -13 7 -13 6 0 -6 9 -7 16 -35 18 -65
3 -42 -1 -59 -18 -84 -20 -27 -21 -34 -10 -55 8 -13 17 -24 21 -24 4 0 8 -99
9 -221 1 -207 -1 -223 -20 -254 -18 -29 -19 -37 -8 -55 12 -21 18 -21 108 -16
103 7 158 13 205 21 17 3 57 8 90 11 33 3 66 11 74 18 12 8 13 8 7 -2 -4 -6 8
-3 28 8 43 26 51 45 24 64 -12 9 -17 19 -13 27 5 7 4 10 -1 6 -5 -3 -9 92 -9
229 0 135 4 234 9 234 5 0 6 3 3 7 -4 3 -1 16 5 27 16 26 16 44 0 72 -6 12 -8
25 -4 29 4 5 1 5 -7 0 -22 -12 -2 77 20 93 15 10 17 17 9 33 -6 10 -7 19 -3
19 4 0 -1 7 -12 16 -19 14 -19 15 9 10 16 -3 26 -2 22 1 -3 3 -1 12 6 20 6 8
15 44 18 81 7 65 7 66 9 16 1 -39 7 -57 26 -78 22 -24 23 -26 5 -26 -11 0 -20
-5 -20 -11 0 -5 -5 -7 -10 -4 -6 4 -9 1 -8 -7 2 -7 -3 -12 -9 -10 -18 3 -16
-3 13 -47 24 -38 25 -44 23 -167 -2 -96 -6 -132 -17 -143 -15 -15 -11 -79 7
-90 5 -3 9 -62 10 -130 1 -69 4 -128 7 -133 3 -4 0 -8 -6 -8 -7 0 -9 -7 -6
-16 3 -8 2 -13 -3 -10 -4 3 -13 -11 -19 -32 -10 -31 -9 -39 3 -48 8 -6 12 -13
10 -16 -5 -5 36 -3 125 7 19 2 37 4 40 5 3 2 9 2 14 1 9 -2 46 38 46 49 0 4
-9 17 -19 29 -17 19 -19 39 -20 169 l-1 147 38 -63 c20 -35 45 -76 55 -90 9
-15 20 -35 23 -44 4 -10 9 -18 13 -18 9 0 8 -42 -2 -57 -5 -7 -5 -13 0 -13 4
0 3 -4 -3 -8 -21 -14 -25 -49 -8 -67 14 -14 29 -15 93 -9 42 3 79 11 82 17 4
5 12 6 18 3 6 -4 11 -2 11 4 0 6 4 9 8 6 4 -2 13 4 20 15 8 12 9 19 1 19 -5 0
-7 5 -4 10 3 6 1 10 -4 10 -6 0 -11 7 -11 16 0 8 -4 13 -9 10 -5 -4 -9 77 -10
191 0 159 3 203 16 230 11 25 12 37 4 46 -6 8 -7 18 -3 22 4 5 2 5 -4 2 -7 -4
-11 21 -12 80 0 90 8 129 34 147 13 10 12 14 -2 35 -15 21 -22 22 -68 17 -28
-3 -70 -6 -93 -6 -24 0 -48 -7 -57 -16 -9 -8 -20 -12 -26 -9 -17 11 -6 -29 18
-63 20 -28 23 -45 25 -152 1 -90 -1 -119 -10 -116 -7 3 -10 -1 -7 -12 5 -14 3
-14 -10 2 -8 10 -13 22 -11 26 3 4 -4 15 -15 25 -11 10 -17 22 -14 26 3 5 0 9
-6 9 -6 0 -8 5 -5 10 3 6 1 10 -4 10 -6 0 -11 4 -11 10 0 5 -14 32 -30 60 -17
28 -25 48 -18 44 7 -5 9 -2 5 9 -3 9 1 18 10 21 9 4 13 9 10 13 -4 3 -2 12 4
19 28 34 -21 71 -70 52 -13 -4 -35 -6 -49 -3 -15 2 -30 -1 -34 -8 -5 -7 -8 -8
-8 -1 0 6 9 19 19 29 19 16 20 33 21 340 0 331 -3 366 -39 380 -10 4 -24 -3
-39 -20 -21 -25 -23 -35 -21 -151 1 -69 -1 -128 -5 -132 -4 -3 -6 97 -5 223 2
223 11 306 40 341 5 6 6 14 2 17 -3 4 -1 7 5 7 6 0 14 10 18 23 3 12 40 54 80
93 41 39 74 77 74 83 0 24 -29 41 -70 41 -25 0 -39 4 -35 10 3 6 2 10 -4 10
-5 0 -12 -6 -14 -12 -3 -7 -6 -8 -6 -3 -1 12 79 99 80 88 1 -4 0 -12 -1 -18
-1 -5 2 -7 6 -2 4 4 9 18 11 30 4 24 51 70 63 62 7 -4 20 15 24 35 3 13 72 74
81 71 6 -1 7 0 3 4 -7 7 38 55 52 55 3 0 40 -32 81 -72 41 -39 67 -68 59 -63
-12 7 -13 6 -3 -7 7 -8 10 -18 6 -22 -4 -4 -1 -4 8 -1 15 6 59 -28 59 -46 0
-6 6 -7 13 -3 9 6 9 4 -1 -8 -8 -10 -9 -19 -3 -22 5 -4 12 -2 16 3 3 6 22 -6
43 -26 20 -20 35 -38 34 -41 -2 -3 2 -9 10 -13 15 -10 6 -12 -52 -10 -19 1
-42 -3 -50 -9 -8 -5 -11 -10 -7 -10 4 0 3 -10 -4 -21 -8 -15 -8 -19 0 -15 6 4
15 -4 21 -18 5 -14 14 -26 19 -26 15 0 51 -42 45 -51 -3 -5 1 -6 9 -3 9 3 23
-9 38 -33 13 -21 28 -41 33 -45 6 -4 7 -8 3 -8 -5 0 0 -15 9 -32 9 -18 21 -41
26 -52 10 -19 12 -595 3 -604 -3 -3 -5 77 -5 177 l0 182 -26 26 -25 25 -20
-21 c-20 -21 -21 -36 -22 -307 -2 -232 1 -286 12 -293 7 -5 10 -14 7 -20 -4
-6 -2 -10 5 -9 6 2 13 -2 15 -7 2 -6 -8 -11 -23 -12 -74 -5 -133 -15 -139 -24
-3 -5 -10 -6 -16 -3 -6 4 -8 2 -4 -4 3 -6 2 -13 -3 -16 -4 -3 2 -25 14 -49 20
-40 22 -57 20 -174 -2 -103 -6 -136 -20 -160 -16 -28 -16 -31 0 -63 13 -25 18
-62 19 -154 2 -118 -9 -176 -34 -176 -15 0 -8 -20 17 -47 12 -14 27 -22 33
-18 6 4 43 8 81 10 61 4 74 8 95 30 29 31 28 29 7 51 -25 25 -26 30 -26 254
-1 356 3 439 24 476 18 32 18 33 -6 59 -20 21 -22 27 -10 31 8 4 15 12 15 20
0 8 5 14 11 14 5 0 8 4 4 9 -3 5 -1 12 4 15 5 3 12 -5 15 -19 4 -14 11 -25 17
-25 6 0 7 -4 4 -10 -3 -5 2 -10 12 -10 15 0 14 -2 -5 -16 -27 -18 -28 -32 -4
-51 9 -8 11 -11 4 -8 -11 6 -10 1 1 -21 10 -21 14 -56 12 -119 -2 -100 -5
-114 -22 -133 -9 -9 -9 -20 -2 -40 5 -15 12 -34 15 -42 3 -8 6 -88 6 -178 1
-142 -1 -165 -17 -182 -20 -22 -14 -67 11 -77 8 -3 54 0 102 7 48 7 103 14
122 16 70 8 106 13 145 19 35 6 53 8 111 14 6 1 21 10 33 20 l22 19 -21 44
c-20 40 -21 58 -20 243 0 203 6 277 20 255 5 -7 9 0 12 19 3 22 -2 42 -18 64
-20 30 -21 36 -9 70 7 20 8 34 3 31 -6 -4 -2 5 7 19 23 35 25 59 8 79 -13 14
-12 19 5 36 18 18 19 34 18 230 -1 115 2 208 7 205 4 -2 7 1 7 6 0 6 -4 11 -9
11 -10 0 -9 25 1 36 11 10 -33 74 -51 74 -21 0 -47 -26 -54 -55 -3 -11 -4 38
-1 108 3 87 9 137 19 157 8 16 15 36 15 45 0 8 5 15 11 15 5 0 7 5 4 10 -3 6
-1 10 6 10 7 0 9 3 6 7 -4 3 2 12 13 20 11 8 20 20 20 27 0 7 18 25 39 42 22
16 37 32 34 36 -2 5 3 8 11 8 8 0 18 5 22 12 5 7 2 9 -7 4 -8 -4 -6 -1 4 8 24
19 15 52 -17 60 -12 3 -170 6 -350 6 -289 1 -325 3 -312 16 14 13 12 19 -12
53 -15 21 -28 37 -30 36 -5 -4 -82 72 -114 112 -15 19 -30 35 -35 36 -4 1 -6
6 -5 12 2 6 1 7 -3 3 -3 -3 -46 34 -94 82 -76 76 -121 112 -133 109 -2 0 -16
-7 -33 -14z m239 -210 c108 -107 196 -199 196 -205 0 -5 -10 -10 -22 -10 -16
0 -76 53 -200 177 l-178 178 -177 -176 c-98 -97 -185 -179 -194 -182 -9 -3
-22 -2 -28 3 -9 5 49 70 188 209 111 110 205 201 210 201 5 0 97 -88 205 -195z
m-415 -272 c0 -5 -22 -25 -50 -46 -61 -46 -110 -112 -146 -197 l-28 -65 -3
-453 c-2 -340 -6 -454 -15 -457 -10 -4 -379 -45 -399 -45 -5 0 -8 209 -8 464
0 428 -1 469 -19 525 -25 81 -71 150 -142 215 -33 29 -59 56 -59 59 0 4 196 7
435 7 239 0 435 -3 434 -7z m1311 -2 c0 -4 -17 -20 -39 -34 -89 -59 -164 -192
-181 -318 -5 -40 -10 -215 -10 -386 0 -291 -1 -313 -17 -313 -10 0 -101 -11
-203 -24 -102 -13 -188 -22 -192 -19 -5 2 -8 177 -8 389 0 361 -1 388 -20 445
-12 33 -31 77 -44 97 -27 44 -94 114 -130 137 -14 10 -26 21 -26 26 0 5 189 9
435 9 239 0 435 -4 435 -9z m-2032 -897 c-2 -244 -7 -379 -13 -379 -11 0 -20
738 -10 764 4 9 9 11 15 5 7 -7 9 -152 8 -390z m597 40 c0 -295 -2 -339 -15
-339 -13 0 -15 44 -18 330 -1 181 0 336 3 343 3 8 11 12 18 9 9 -3 12 -80 12
-343z m713 49 c-2 -226 -6 -297 -15 -301 -10 -3 -13 61 -13 297 0 262 2 301
15 301 13 0 15 -37 13 -297z m593 37 c0 -200 -3 -255 -13 -255 -10 0 -14 57
-16 258 -2 232 -1 258 14 255 14 -3 15 -33 15 -258z m-2001 178 c0 -17 -148
-171 -540 -563 l-540 -540 150 -150 c104 -104 150 -157 150 -173 0 -12 -4 -22
-10 -22 -13 0 -351 342 -345 349 37 42 1122 1121 1127 1121 5 0 8 -10 8 -22z
m638 -283 c0 -16 -2 -15 -8 5 -4 14 -8 34 -8 45 0 16 2 15 8 -5 4 -14 8 -34 8
-45z m815 -113 c3 -29 3 -50 -2 -48 -4 3 -8 29 -10 58 -3 66 4 60 12 -10z
m501 -56 c-2 -12 1 -14 11 -6 9 8 14 6 19 -6 4 -9 4 -19 1 -22 -3 -3 -5 0 -5
6 0 8 -7 9 -27 1 -14 -5 -34 -7 -42 -4 -14 6 -13 9 6 25 12 9 19 21 15 25 -4
4 0 6 8 3 8 -3 14 -13 14 -22z m-1797 -218 c9 -10 12 -18 7 -18 -5 0 -2 -5 6
-10 11 -8 8 -9 -13 -4 -15 3 -33 1 -41 -5 -11 -9 -16 -9 -22 0 -4 7 -3 9 4 5
6 -3 14 3 17 15 5 14 12 18 23 14 14 -5 15 -4 5 6 -9 9 -12 40 -11 94 l2 80 3
-80 c3 -55 9 -85 20 -97z m1853 159 c0 -2 -11 -18 -25 -37 -32 -43 -34 -109
-5 -150 l20 -29 -20 -33 c-18 -30 -20 -50 -20 -253 0 -174 3 -225 15 -245 23
-41 28 -51 24 -55 -2 -2 -63 -11 -134 -19 -72 -9 -183 -23 -249 -32 -65 -8
-121 -12 -124 -9 -3 3 5 17 19 31 23 25 24 32 27 190 3 154 2 166 -19 203
l-22 39 22 28 c18 23 21 40 21 131 0 104 -13 155 -42 166 -26 9 39 25 152 36
63 7 151 18 195 25 75 13 165 20 165 13z m-590 -73 c0 -3 -9 -17 -20 -31 -28
-36 -35 -85 -16 -121 14 -27 14 -33 0 -61 -13 -26 -15 -71 -12 -280 3 -248 3
-250 27 -275 14 -14 22 -29 18 -32 -8 -8 -187 -27 -194 -21 -2 3 6 20 19 37
21 28 23 44 26 156 3 113 2 128 -18 161 l-22 37 22 38 c20 35 21 50 18 172 -3
122 -5 137 -26 166 -13 17 -22 33 -20 34 1 2 41 8 88 13 47 6 91 11 98 12 6 0
12 -2 12 -5z m-295 -70 c-22 -32 -25 -48 -25 -121 0 -61 5 -93 16 -113 16 -26
16 -29 0 -51 -13 -20 -16 -54 -16 -220 0 -196 0 -198 25 -227 14 -17 25 -32
25 -35 0 -3 -37 -8 -82 -12 -46 -3 -91 -9 -100 -11 -22 -6 -24 18 -4 35 8 7
18 25 21 41 5 25 -9 56 -92 199 -54 93 -100 166 -103 163 -3 -4 -3 -96 0 -204
5 -190 6 -197 29 -222 l24 -25 -24 -6 c-38 -9 -173 -24 -177 -20 -3 2 5 24 17
48 18 37 21 61 21 170 0 98 -4 134 -17 162 -16 33 -16 37 0 70 13 28 17 64 17
159 0 114 -2 126 -24 159 -29 43 -29 43 94 53 l93 7 -26 -35 c-15 -19 -27 -43
-27 -53 0 -17 53 -116 148 -275 25 -41 46 -77 48 -79 2 -2 4 86 4 197 0 200 0
201 -25 231 l-26 30 43 5 c24 3 54 7 68 10 14 2 42 4 62 5 l37 1 -24 -36z
m-561 -26 c-4 -7 -15 -25 -25 -39 -31 -45 -35 -102 -9 -144 22 -35 22 -36 4
-57 -17 -18 -19 -42 -22 -257 l-3 -237 26 -38 c14 -21 25 -39 23 -40 -9 -7
-503 -64 -510 -60 -5 3 3 19 17 36 l25 30 0 224 c0 214 -1 226 -21 254 l-22
28 22 28 c16 20 21 41 21 86 0 50 -4 63 -26 85 -14 14 -23 27 -20 30 2 3 48
10 100 17 100 13 111 9 79 -27 -16 -17 -18 -51 -21 -343 l-3 -324 23 1 c13 0
57 6 98 12 l75 12 3 315 c2 306 2 315 -19 343 -11 16 -19 31 -16 33 3 3 46 11
97 19 51 8 95 16 98 19 10 10 13 6 6 -6z m-214 -6 c0 -4 -5 -13 -11 -19 -7 -7
-4 -22 10 -49 19 -37 21 -58 21 -328 1 -158 -1 -291 -4 -294 -6 -6 -39 -11
-99 -15 l-38 -3 1 298 c1 201 5 298 12 298 5 0 7 7 4 16 -3 8 -2 13 3 10 8 -5
27 43 19 48 -2 2 -14 10 -28 20 l-25 17 25 -4 c14 -3 34 -1 45 4 27 10 65 11
65 1z"/>
		<path d="M3730 4344 c-14 -3 -44 -7 -67 -10 l-43 -5 0 -295 0 -296 64 7 c35 4
79 10 97 14 l34 7 3 292 2 292 -32 -1 c-18 -1 -44 -3 -58 -5z m60 -295 l0
-258 -35 -6 c-19 -3 -50 -7 -69 -10 l-33 -5 -6 217 c-6 235 -5 299 6 309 4 4
26 9 49 11 24 3 44 6 46 8 2 1 12 1 23 -2 18 -5 19 -16 19 -264z"/>
		<path d="M3294 4230 c0 -13 4 -16 10 -10 7 7 7 13 0 20 -6 6 -10 3 -10 -10z"/>
		<path d="M2985 5494 c-8 -9 -15 -12 -15 -7 0 4 -9 -5 -19 -20 -10 -16 -21 -28
-25 -28 -3 1 -6 -1 -6 -4 1 -3 -6 -13 -15 -22 -14 -14 -14 -17 0 -33 8 -9 12
-19 9 -22 -3 -3 0 -9 7 -14 8 -5 10 -3 4 6 -5 9 -4 11 3 6 7 -4 12 -14 12 -22
0 -8 5 -14 11 -14 5 0 7 -4 4 -10 -3 -5 0 -7 8 -4 8 3 17 -2 20 -10 4 -9 13
-16 21 -16 19 0 96 70 96 87 0 7 4 13 9 13 20 0 1 41 -36 78 -46 47 -68 56
-88 36z m67 -51 c21 -20 38 -42 38 -48 0 -6 -18 -29 -40 -50 l-40 -39 -45 44
-45 44 42 43 c23 24 44 43 47 43 3 0 22 -17 43 -37z"/>
		<path d="M2919 5050 c-12 -16 -15 -37 -12 -95 l4 -75 -38 17 c-21 10 -39 21
-41 26 -6 11 -72 8 -72 -4 0 -5 6 -7 13 -4 6 4 4 0 -5 -8 -16 -13 -15 -16 9
-53 15 -21 30 -40 34 -42 4 -2 6 -15 4 -30 -2 -15 -2 -21 1 -14 7 16 21 15 27
-1 3 -9 -2 -13 -16 -12 -22 2 -74 -21 -94 -41 -9 -8 -9 -14 0 -23 6 -6 7 -11
1 -11 -5 0 13 -12 39 -25 27 -14 52 -23 56 -21 4 3 8 -1 8 -9 0 -8 -4 -15 -9
-15 -5 0 -7 -4 -4 -9 4 -5 0 -11 -6 -14 -23 -8 33 -59 57 -52 11 3 25 7 30 8
6 2 16 6 23 10 7 5 12 3 12 -3 0 -7 7 -10 15 -6 8 3 15 1 15 -4 0 -6 6 -9 13
-8 6 2 11 -3 9 -10 -1 -8 2 -11 8 -7 5 3 10 1 10 -4 0 -20 25 -11 43 15 10 14
16 31 13 39 -4 11 2 13 24 8 23 -4 34 0 47 16 10 12 33 24 51 26 28 4 48 15
62 35 6 8 -20 51 -28 46 -4 -2 -12 2 -19 9 -9 10 -7 17 11 34 13 12 32 40 42
62 15 35 16 42 3 50 -8 5 -10 9 -4 9 5 0 4 5 -2 11 -8 8 -19 8 -40 -3 l-29
-15 2 84 c1 45 -2 80 -6 78 -4 -3 -10 1 -13 9 -13 33 -54 0 -91 -71 -15 -31
-53 -48 -43 -20 9 24 -67 136 -93 137 -3 0 -12 -9 -21 -20z m69 -78 c18 -38
35 -89 38 -115 7 -50 18 -54 28 -11 7 28 84 162 98 170 23 14 4 -135 -26 -207
-5 -12 8 -8 54 14 33 17 63 27 67 24 8 -8 -20 -50 -68 -102 l-39 -42 40 -18
c57 -26 46 -41 -26 -37 -48 3 -57 2 -46 -9 23 -24 15 -42 -15 -34 -54 14 -58
12 -58 -27 0 -48 -18 -50 -25 -2 l-5 36 -24 -26 c-21 -22 -26 -24 -35 -10 -10
13 -15 13 -48 -1 -21 -8 -42 -15 -48 -15 -19 0 -10 26 20 55 32 31 31 45 -4
45 -30 0 -116 30 -116 40 0 15 98 32 142 25 l43 -7 -56 59 c-31 32 -66 73 -78
91 -21 29 -21 32 -4 32 20 0 118 -54 128 -70 10 -17 27 -11 21 8 -3 9 -8 59
-11 110 -7 116 8 122 53 24z"/>
		<path d="M2943 4793 c4 -3 1 -13 -6 -22 -11 -14 -10 -14 5 -2 16 12 16 31 1
31 -4 0 -3 -3 0 -7z"/>
		<path d="M4043 5006 c-29 -17 -22 -70 13 -104 16 -15 30 -31 31 -35 1 -4 4
-13 6 -20 4 -9 6 -9 6 1 1 10 4 10 15 0 8 -7 12 -16 9 -20 -2 -5 0 -8 6 -8 18
0 68 -55 63 -70 -3 -8 -1 -12 3 -8 5 4 15 2 23 -5 13 -9 14 -9 8 0 -5 9 -2 11
8 7 9 -3 13 -11 10 -16 -4 -6 1 -6 13 1 11 6 24 7 28 3 5 -4 5 -2 1 5 -3 6 0
16 9 20 12 7 13 12 1 35 -8 15 -11 30 -8 33 4 4 2 5 -4 3 -7 -1 -23 10 -38 25
-27 30 -34 43 -14 31 7 -4 8 -3 4 5 -4 6 -11 9 -15 7 -4 -3 -34 19 -67 49 -32
30 -63 55 -67 55 -5 0 -6 4 -3 8 7 12 -19 11 -41 -2z m135 -123 c56 -59 102
-110 102 -114 0 -4 -7 -10 -16 -13 -23 -9 -214 181 -214 212 0 12 6 22 13 22
8 0 60 -48 115 -107z"/>
		<path d="M4390 4722 c-214 -27 -325 -45 -337 -54 -13 -11 -12 -31 5 -50 6 -8
8 -19 4 -23 -4 -5 -2 -5 4 -2 6 3 18 -7 28 -24 15 -25 17 -58 17 -242 l1 -212
-31 -14 c-41 -19 -45 -37 -16 -69 14 -15 25 -30 25 -34 0 -4 7 -5 15 -2 10 4
15 0 15 -11 0 -10 5 -14 13 -10 6 4 4 0 -6 -8 -10 -9 -17 -24 -15 -34 1 -10
-3 -37 -11 -60 -11 -32 -11 -49 -3 -70 6 -15 12 -59 13 -98 3 -72 -10 -117
-49 -173 -18 -27 -19 -68 -1 -57 5 4 9 1 9 -4 0 -14 44 -14 90 -1 19 6 61 11
92 11 32 1 56 5 53 9 -2 4 7 6 20 4 14 -1 23 2 19 7 -3 5 -1 9 3 9 5 0 18 7
29 16 10 8 13 12 5 8 -10 -5 -12 -3 -5 7 15 24 13 37 -6 32 -10 -3 -21 1 -25
8 -6 8 -4 10 6 5 8 -4 5 0 -6 8 -16 14 -20 31 -22 119 -2 56 -4 132 -6 169 -1
37 -1 65 2 63 2 -3 11 1 19 8 13 9 14 9 8 0 -4 -7 -3 -13 2 -13 5 0 15 -18 22
-40 7 -22 16 -40 20 -40 5 0 61 -111 65 -130 0 -3 11 -21 23 -40 12 -19 19
-43 17 -55 -22 -100 -5 -128 72 -119 27 3 57 7 68 10 11 3 43 7 70 10 28 3 62
11 78 19 19 9 25 10 21 2 -3 -7 3 -1 14 13 l20 24 -22 21 c-12 11 -22 24 -23
30 -1 5 -7 11 -14 14 -7 2 -9 -1 -4 -9 6 -9 4 -11 -6 -4 -22 13 -63 65 -66 83
-1 9 -7 17 -13 19 -5 2 -8 8 -4 13 3 5 0 9 -6 9 -6 0 -8 5 -5 10 3 6 1 10 -4
10 -6 0 -11 6 -11 13 0 7 -15 42 -32 78 -65 129 -69 149 -27 149 11 0 17 5 14
10 -3 6 -1 10 5 10 17 0 80 53 80 68 0 7 5 10 11 6 7 -4 10 -1 7 7 -3 8 1 19
7 24 6 6 20 32 30 60 15 40 18 80 19 225 0 195 -2 202 -67 263 l-41 38 -85 -3
c-47 -1 -133 -8 -191 -16z m310 -49 c37 -38 37 -39 44 -138 9 -137 -6 -300
-32 -351 -24 -46 -79 -101 -139 -138 -24 -14 -43 -28 -43 -31 0 -3 38 -81 84
-174 86 -171 117 -212 179 -234 27 -9 29 -19 4 -23 -136 -21 -234 -34 -261
-34 l-34 0 16 45 16 44 -84 168 -85 168 -91 6 c-77 5 -100 10 -145 36 -62 35
-69 57 -21 61 l32 3 0 229 c0 132 -4 241 -10 257 -6 15 -23 38 -37 50 -15 12
-24 25 -21 29 10 9 442 62 522 63 66 1 69 0 106 -36z m-507 -722 c23 -6 54
-12 70 -16 l27 -5 0 -133 c0 -147 10 -198 46 -234 13 -13 24 -26 24 -28 0 -11
-277 -48 -289 -38 -3 1 5 13 17 26 37 40 52 91 52 182 0 50 -5 93 -12 105 -10
15 -10 26 0 53 7 18 12 48 12 65 0 18 3 32 6 32 3 0 24 -4 47 -9z"/>
		<path d="M4415 4542 c-60 -8 -113 -20 -117 -26 -4 -6 -8 -102 -8 -213 l0 -203
25 0 c41 0 174 47 209 73 57 44 66 77 66 241 l0 146 -32 -1 c-18 -1 -82 -8
-143 -17z m148 -143 c-1 -67 -5 -129 -9 -138 -4 -9 -8 -18 -8 -21 -3 -10 -56
-63 -56 -55 0 4 -8 1 -17 -7 -10 -9 -43 -21 -73 -29 -30 -7 -59 -16 -65 -20
-7 -5 -10 57 -10 181 0 103 3 186 7 184 4 -2 9 0 13 6 4 6 10 8 13 6 4 -2 23
-1 42 3 19 4 64 8 100 9 l65 3 -2 -122z"/>
		<path d="M4555 4150 c-3 -5 -1 -10 4 -10 6 0 11 5 11 10 0 6 -2 10 -4 10 -3 0
-8 -4 -11 -10z"/>
		<path d="M4486 4038 c3 -5 10 -6 15 -3 13 9 11 12 -6 12 -8 0 -12 -4 -9 -9z"/>
		<path d="M1781 4434 c-72 -8 -133 -20 -147 -29 -29 -19 -24 -47 13 -79 l28
-24 3 -183 c3 -182 3 -184 -20 -203 -18 -15 -19 -18 -4 -12 16 5 17 4 6 -9 -7
-8 -16 -13 -20 -10 -5 3 -7 -9 -6 -27 1 -18 7 -33 13 -33 6 0 15 -4 20 -9 5
-5 3 -6 -4 -2 -7 4 -13 2 -13 -4 0 -6 -6 -8 -12 -4 -8 4 -10 3 -5 -2 5 -5 13
-10 18 -10 5 -1 14 -2 19 -3 12 -1 14 -421 3 -422 -5 0 -28 -2 -51 -4 -24 -2
-76 -9 -115 -15 -51 -8 -72 -8 -77 0 -10 16 6 103 25 141 17 32 17 33 -6 52
-19 15 -33 18 -74 13 -60 -8 -132 -53 -127 -80 2 -13 -1 -16 -10 -10 -7 4 -10
4 -6 -1 4 -4 3 -16 -3 -27 -5 -10 -12 -53 -14 -96 -7 -116 -23 -170 -48 -156
-7 4 -9 3 -4 -1 4 -5 0 -16 -8 -24 -11 -14 -12 -21 -2 -41 12 -22 19 -25 67
-23 79 2 269 23 308 33 19 5 40 6 48 3 8 -3 14 -1 14 3 0 5 15 10 33 11 48 3
114 10 189 21 37 6 75 8 85 6 22 -6 72 30 69 49 -1 6 -5 18 -9 25 -5 6 -5 17
-1 24 4 7 3 8 -5 4 -14 -9 -43 12 -36 24 3 5 1 11 -5 15 -6 4 -10 135 -10 373
1 307 3 370 15 386 20 26 19 49 -3 90 -16 29 -17 45 -10 97 5 42 15 69 28 81
25 23 26 35 3 17 -10 -7 -6 0 10 15 15 15 27 29 27 31 0 11 -41 45 -52 44 -7
-1 -69 -8 -137 -15z m159 -20 c0 -3 -15 -23 -32 -46 -30 -37 -33 -47 -36 -122
-3 -72 -2 -83 17 -100 26 -24 26 -31 1 -63 -19 -25 -20 -41 -20 -397 0 -353 1
-373 20 -404 11 -18 27 -35 35 -38 8 -4 15 -12 15 -19 0 -9 -22 -15 -62 -20
-35 -4 -184 -22 -333 -41 -392 -50 -375 -48 -375 -37 0 6 7 16 16 24 34 28 48
74 55 177 4 81 10 109 26 130 33 45 81 72 129 72 24 0 44 -1 44 -3 0 -1 -9
-20 -20 -42 -14 -28 -20 -59 -20 -109 l0 -69 58 6 c124 13 235 28 243 33 5 3
9 104 9 224 0 218 0 218 -25 248 -14 17 -25 33 -25 37 0 3 11 21 25 39 24 32
25 37 25 205 0 183 -9 228 -49 253 -41 26 -22 35 107 50 154 18 172 20 172 12z"/>
		<path d="M4934 4151 c3 -4 -5 -6 -17 -4 -34 7 -55 -36 -33 -69 23 -35 143
-158 154 -158 11 0 9 -60 -2 -79 -5 -7 -14 -10 -22 -7 -8 3 -11 0 -8 -9 3 -8
-3 -16 -16 -20 -12 -4 -20 -9 -17 -11 2 -2 -18 -27 -45 -54 -44 -45 -65 -81
-35 -64 8 6 8 3 -2 -9 -11 -15 -10 -18 12 -26 14 -6 34 -8 44 -7 20 4 223 202
223 217 0 5 5 9 11 9 6 0 9 12 7 28 -3 27 -74 109 -91 104 -4 -1 -6 2 -2 8 3
5 -5 15 -19 21 -13 6 -27 20 -29 31 -3 11 -10 17 -17 13 -6 -3 -9 -2 -8 3 3 9
-75 92 -86 92 -4 0 -5 -4 -2 -9z m114 -144 l123 -123 -118 -117 c-104 -103
-120 -115 -133 -102 -13 14 -3 27 88 118 l102 102 -106 106 c-75 75 -105 112
-101 123 4 9 10 16 14 16 5 0 64 -55 131 -123z"/>
		<path d="M1236 4008 c4 -7 3 -8 -4 -4 -7 4 -27 -4 -45 -18 -19 -14 -36 -24
-38 -22 -2 2 -4 -5 -5 -17 0 -12 -3 -34 -7 -49 -4 -21 -2 -26 9 -21 8 3 14 2
12 -3 -4 -15 64 -75 79 -70 8 3 11 1 8 -4 -17 -28 14 -6 86 63 20 18 26 77 8
77 -5 0 -7 5 -4 10 4 6 1 9 -7 8 -7 -2 -12 3 -10 10 1 6 -2 12 -6 12 -5 0 -19
9 -32 20 -25 22 -56 28 -44 8z m59 -58 l39 -40 -44 -45 -44 -45 -45 45 -45 45
39 40 c21 22 44 40 50 40 6 0 29 -18 50 -40z"/>
		<path d="M3838 3595 c-3 -3 -27 -8 -54 -11 -27 -3 -65 -7 -84 -9 -19 -2 -60
-6 -90 -9 -30 -3 -79 -10 -109 -16 -29 -5 -55 -10 -57 -10 -2 0 -4 -7 -4 -17
0 -15 -2 -15 -17 -1 -23 20 -60 7 -72 -25 -5 -14 -13 -177 -16 -363 -4 -187
-8 -371 -9 -411 -1 -40 1 -70 5 -68 4 3 9 -2 13 -10 9 -24 33 -18 58 15 l24
31 -4 -68 c-2 -37 -11 -86 -19 -108 -8 -22 -17 -50 -20 -62 -3 -13 -10 -23
-15 -23 -5 0 -7 -4 -4 -9 3 -5 -7 -22 -23 -39 -16 -17 -27 -33 -24 -36 4 -3 0
-6 -8 -6 -8 0 -21 -9 -29 -20 -8 -11 -20 -20 -27 -20 -6 0 -15 -5 -19 -12 -5
-7 -2 -8 7 -3 8 4 2 -4 -13 -19 -24 -23 -26 -30 -16 -46 7 -10 21 -21 33 -24
11 -3 202 -6 425 -6 l405 0 30 24 30 24 -70 69 c-83 83 -105 109 -98 117 4 3
2 6 -4 6 -6 0 -14 10 -18 23 -4 12 -9 27 -11 32 -10 28 -24 93 -24 113 l0 22
20 -20 c26 -26 34 -25 56 8 18 25 19 55 19 489 0 439 -1 462 -19 482 -20 22
-58 29 -53 10 3 -17 -45 -18 -69 -3 -11 8 -23 12 -26 9z m132 -500 c0 -426 -2
-484 -15 -479 -13 5 -15 68 -15 478 0 260 3 476 7 479 3 4 10 7 15 7 4 0 8
-218 8 -485z m-100 458 c0 -10 1 -236 3 -503 2 -464 3 -488 24 -547 11 -35 35
-85 52 -112 30 -47 105 -123 147 -148 15 -9 -77 -12 -423 -12 -289 -1 -443 2
-443 9 0 6 4 10 9 10 20 0 112 95 145 148 66 109 66 114 66 639 0 260 1 473 3
474 1 0 92 13 202 29 110 15 203 28 208 29 4 0 7 -7 7 -16z m42 -5 c-7 -7 -12
-8 -12 -2 0 6 3 14 7 17 3 4 9 5 12 2 2 -3 -1 -11 -7 -17z m-511 -50 c2 -16 1
-27 -12 -478 -6 -201 -13 -367 -15 -369 -20 -21 -22 52 -13 424 6 226 13 416
15 423 2 6 8 12 14 12 5 0 11 -6 11 -12z m10 -791 c-10 -9 -11 -8 -5 6 3 10 9
15 12 12 3 -3 0 -11 -7 -18z"/>
		<path d="M4735 3520 c-4 -6 -10 -8 -15 -5 -5 3 -18 -3 -30 -15 -11 -11 -24
-20 -29 -20 -5 0 -13 -9 -16 -20 -4 -11 -11 -18 -16 -15 -5 4 -9 1 -9 -6 0
-12 -78 -89 -91 -89 -4 0 -11 -5 -15 -12 -5 -7 -3 -8 7 -3 8 5 -4 -8 -25 -28
-21 -20 -42 -37 -47 -37 -4 0 -17 -16 -29 -34 -11 -19 -30 -38 -41 -41 -11 -4
-16 -11 -12 -18 4 -7 0 -7 -10 1 -14 12 -17 11 -22 -11 -7 -27 -42 -65 -54
-58 -3 2 -11 -6 -17 -19 -7 -12 -24 -30 -38 -40 -15 -9 -35 -32 -45 -51 -10
-19 -21 -33 -25 -31 -9 4 -83 -74 -114 -121 -24 -37 -41 -124 -21 -111 4 2 5
12 2 22 -6 15 -5 15 10 3 9 -7 15 -17 12 -21 -3 -5 4 -6 15 -3 11 3 17 9 14
14 -3 5 -1 9 4 9 5 0 97 88 204 195 108 107 200 195 205 195 11 0 53 55 53 69
0 6 8 7 17 4 12 -5 15 -2 10 10 -3 9 -3 16 1 15 4 -2 28 18 54 43 26 26 55 49
63 53 9 3 14 10 11 15 -3 5 9 18 27 30 17 11 29 21 25 21 -5 0 1 9 12 20 12
12 18 25 15 30 -4 6 0 10 7 10 7 0 1 11 -14 24 -15 13 -24 27 -21 30 4 3 4 6
0 6 -3 0 -9 -5 -12 -10z m21 -41 c7 -12 -696 -710 -708 -703 -5 3 -8 13 -8 22
0 22 670 692 692 692 9 0 20 -5 24 -11z m-536 -453 c0 -3 -4 -8 -10 -11 -5 -3
-10 -1 -10 4 0 6 5 11 10 11 6 0 10 -2 10 -4z"/>
		<path d="M2642 3446 c4 -5 -3 -17 -15 -26 -21 -18 -22 -25 -24 -210 -1 -106
-4 -195 -7 -198 -3 -3 -6 81 -6 187 0 164 -2 195 -16 209 -22 22 -36 22 -219
0 -172 -20 -192 -24 -215 -43 -17 -14 -50 -16 -50 -3 0 17 -41 -13 -50 -36 -5
-13 -11 -108 -14 -212 -3 -104 -9 -255 -12 -335 -7 -144 -6 -146 16 -167 13
-12 26 -22 29 -22 17 1 34 21 42 51 7 27 7 23 3 -21 -9 -103 -13 -121 -36
-168 -25 -53 -39 -71 -120 -151 -43 -43 -54 -60 -49 -75 4 -11 16 -22 27 -25
10 -3 116 -6 234 -7 118 -1 264 -2 325 -3 102 -1 108 -2 87 -17 -22 -15 -31
-54 -11 -54 5 0 7 -5 3 -12 -5 -7 -3 -8 5 -4 8 5 14 1 18 -12 3 -11 12 -23 20
-26 8 -3 11 -10 8 -16 -3 -5 0 -10 7 -10 7 0 37 -24 66 -54 38 -40 50 -59 46
-72 -6 -17 -5 -17 9 1 9 11 17 15 17 9 0 -15 57 -74 64 -66 3 3 6 0 6 -6 0 -6
14 -25 30 -42 17 -17 30 -28 30 -25 0 4 12 -8 27 -27 40 -47 53 -61 53 -52 0
5 5 3 12 -4 19 -19 32 -15 80 31 148 139 188 177 184 177 -2 0 10 15 27 33 18
19 35 32 39 30 4 -2 5 4 1 14 -3 10 -3 15 2 11 4 -4 29 15 55 42 26 27 51 46
55 42 5 -4 5 -1 1 6 -5 8 0 22 10 33 14 15 16 24 8 37 -21 32 -88 27 -99 -8
-3 -11 -9 -19 -13 -17 -4 1 -29 -20 -55 -46 -27 -26 -53 -45 -58 -41 -5 3 -6
-2 -3 -10 3 -9 -6 -23 -25 -37 -17 -12 -28 -26 -25 -31 3 -4 -1 -8 -9 -8 -8 0
-22 -11 -31 -24 -8 -14 -24 -27 -35 -31 -13 -4 -18 -11 -14 -22 4 -9 2 -14 -3
-10 -5 3 -20 -8 -33 -24 -30 -38 -53 -37 -85 4 -15 17 -30 37 -35 42 -4 6 -24
23 -44 39 -20 17 -34 34 -31 38 3 4 2 8 -3 8 -11 0 -63 46 -63 56 0 5 -25 29
-55 54 -29 25 -54 51 -54 57 -1 7 -16 19 -33 27 l-33 14 60 3 c33 1 72 3 87 2
15 0 25 3 23 7 -3 4 4 10 15 13 21 5 28 41 10 52 -6 4 -8 11 -5 16 3 5 0 6 -7
4 -24 -9 -116 98 -153 177 -32 68 -51 149 -38 162 4 3 16 -5 29 -19 28 -30 49
-24 64 18 16 46 13 776 -3 791 -18 16 -53 42 -45 32z m26 -427 c1 -211 0 -390
-3 -398 -4 -11 -8 -11 -20 -1 -13 11 -15 68 -15 395 0 210 3 385 7 389 25 24
28 -18 31 -385z m-108 -16 c0 -424 5 -474 51 -566 34 -67 86 -130 134 -162 25
-17 45 -33 45 -37 0 -5 -196 -8 -435 -8 -239 0 -435 3 -434 8 0 4 21 24 47 46
62 51 115 123 144 194 23 56 23 65 26 465 2 224 6 407 10 408 4 0 88 11 187
23 99 13 190 24 203 25 l22 1 0 -397z m-468 325 c3 -10 -17 -660 -21 -700 -1
-5 -8 -8 -16 -8 -14 0 -15 20 -10 163 3 89 8 251 11 360 5 150 9 197 19 197 7
0 15 -6 17 -12z m509 -483 l-9 -70 1 65 c0 68 9 118 14 90 2 -8 -1 -46 -6 -85z
m2 -143 c1 -33 -1 -58 -5 -55 -5 2 -8 32 -8 65 0 78 11 69 13 -10z m199 -732
c103 -104 193 -190 201 -190 7 0 92 81 189 179 180 183 212 211 230 193 11
-11 -405 -436 -421 -430 -6 1 -103 95 -216 207 -192 189 -225 231 -183 231 7
0 97 -85 200 -190z"/>
		<path d="M2659 2283 c-13 -16 -12 -17 4 -4 9 7 17 15 17 17 0 8 -8 3 -21 -13z"/>
		<path d="M2935 3440 c-3 -6 -11 -7 -17 -4 -7 4 -8 2 -4 -4 4 -7 2 -12 -3 -12
-7 0 -10 -29 -8 -78 l2 -78 -30 17 c-49 28 -87 31 -114 10 l-24 -18 22 -22
c11 -11 21 -24 21 -27 0 -3 21 -26 48 -52 26 -25 37 -38 25 -28 -12 10 -23 13
-27 8 -3 -6 -3 -12 1 -15 5 -2 2 -2 -6 0 -7 2 -20 -2 -29 -9 -8 -7 -18 -12
-21 -11 -3 2 -13 0 -22 -2 -18 -6 -33 -45 -17 -45 5 0 7 -4 4 -9 -6 -10 37
-31 63 -31 10 0 24 -7 31 -15 10 -12 9 -20 -5 -41 -13 -20 -14 -29 -5 -38 12
-12 102 -17 94 -5 -2 4 5 7 16 6 11 -1 20 -5 20 -10 0 -5 9 -6 19 -2 14 4 23
0 31 -15 6 -11 14 -20 19 -20 16 0 51 38 51 54 0 13 5 16 20 11 13 -4 27 1 43
17 13 13 32 24 43 25 43 3 62 8 58 14 -2 4 4 10 13 13 14 6 12 11 -15 36 -18
16 -32 32 -32 35 0 4 14 24 31 46 39 50 43 88 9 106 -16 8 -28 9 -34 3 -21
-21 -26 -7 -20 63 5 64 3 76 -15 98 l-20 24 -25 -30 c-14 -16 -32 -43 -40 -60
-9 -16 -16 -26 -16 -21 0 6 -6 1 -14 -10 -14 -19 -15 -19 -21 1 -18 53 -28 75
-35 75 -4 0 -11 12 -14 26 -4 15 -10 24 -13 20 -3 -3 -12 -1 -19 5 -8 7 -14 7
-19 -1z m51 -84 c14 -27 32 -76 39 -110 10 -47 14 -56 20 -41 26 68 39 95 67
137 16 27 35 48 40 48 16 0 3 -134 -16 -172 -9 -17 -16 -34 -16 -38 0 -4 27 7
60 23 33 17 63 27 66 24 8 -7 -29 -61 -73 -108 l-34 -36 41 -18 c54 -24 46
-40 -18 -38 -51 1 -52 1 -46 -24 7 -28 11 -28 -64 -7 -21 6 -22 4 -20 -32 2
-22 -1 -40 -7 -42 -5 -1 -11 14 -13 34 l-3 36 -24 -22 c-19 -18 -28 -20 -38
-12 -13 11 -40 7 -89 -13 -31 -12 -21 21 16 53 36 31 37 42 3 42 -28 0 -127
32 -127 41 0 17 75 31 128 25 l56 -7 -60 63 c-65 68 -100 115 -91 124 7 8 99
-40 137 -72 l32 -28 -6 40 c-11 70 -17 185 -10 196 8 12 14 3 50 -66z m-218
-101 c-3 -3 -9 2 -12 12 -6 14 -5 15 5 6 7 -7 10 -15 7 -18z"/>
		<path d="M1637 3100 c-9 -11 -17 -27 -17 -34 0 -8 37 -52 82 -98 46 -45 82
-86 81 -90 -1 -3 4 -12 12 -18 8 -7 15 -9 15 -6 0 4 14 -9 31 -28 16 -19 39
-38 50 -41 10 -4 19 -11 19 -16 0 -6 -6 -7 -12 -3 -9 5 -9 2 1 -9 7 -9 19 -17
25 -17 6 0 4 5 -4 10 -10 7 -11 10 -2 10 7 0 15 -7 18 -15 7 -18 40 -20 50 -3
10 16 13 78 4 78 -4 0 -12 11 -18 25 -6 14 -17 25 -23 25 -16 0 -78 73 -72 84
4 5 1 6 -7 1 -14 -8 -60 39 -60 62 0 8 -4 12 -8 9 -5 -3 -24 9 -43 25 -22 20
-27 28 -14 23 11 -3 7 3 -10 13 -48 32 -79 35 -98 13z m190 -152 c101 -101
143 -149 143 -165 0 -13 -6 -23 -12 -23 -10 0 -318 307 -318 317 0 1 8 4 18 6
9 3 19 5 21 6 3 0 69 -63 148 -141z"/>
		<path d="M2814 3000 c0 -13 4 -16 10 -10 7 7 7 13 0 20 -6 6 -10 3 -10 -10z"/>
		<path d="M2971 2539 c-11 -11 -28 -31 -37 -44 -9 -14 -20 -23 -24 -20 -5 3 -7
-9 -4 -27 8 -64 134 -148 134 -90 0 8 3 12 6 9 4 -4 22 10 41 29 28 31 32 39
21 52 -10 12 -10 14 -1 8 23 -13 4 19 -22 38 -14 10 -25 24 -25 31 0 13 -20
25 -51 31 -9 2 -26 -6 -38 -17z m81 -46 c21 -20 38 -41 38 -47 0 -5 -19 -26
-42 -48 l-42 -38 -43 42 -43 42 42 43 c23 24 44 43 47 43 3 0 22 -17 43 -37z"/>
		<path d="M3170 6246 c0 -2 8 -10 18 -17 15 -13 16 -12 3 4 -13 16 -21 21 -21
13z"/>
		<path d="M3416 5992 c-3 -5 1 -9 9 -9 8 0 12 4 9 9 -3 4 -7 8 -9 8 -2 0 -6 -4
-9 -8z"/>
		<path d="M4926 4798 c3 -5 10 -6 15 -3 13 9 11 12 -6 12 -8 0 -12 -4 -9 -9z"/>
		<path d="M1045 4481 c-3 -5 -2 -12 3 -15 5 -3 9 1 9 9 0 17 -3 19 -12 6z"/>
		<path d="M4306 2043 c-6 -14 -5 -15 5 -6 7 7 10 15 7 18 -3 3 -9 -2 -12 -12z"/>
	</g>
</svg>
